<?xml version="1.0" standalone="no"?>
<!DOCTYPE svg PUBLIC "-//W3C//DTD SVG 20010904//EN"
 "http://www.w3.org/TR/2001/REC-SVG-20010904/DTD/svg10.dtd">
<svg version="1.0" xmlns="http://www.w3.org/2000/svg"
 width="2251.000000pt" height="513.000000pt" viewBox="0 0 2251.000000 513.000000"
 preserveAspectRatio="xMidYMid meet">

<g transform="translate(0.000000,513.000000) scale(0.100000,-0.100000)"
fill="#000000" stroke="none">
<path d="M1692 3709 c-229 -27 -405 -125 -479 -266 -71 -135 -68 -99 -68 -803
0 -594 1 -639 19 -690 50 -149 130 -243 259 -304 162 -78 248 -86 900 -86 557
0 574 1 591 45 3 9 6 248 6 531 l0 515 -25 24 -24 25 -286 0 -286 0 -24 -25
-25 -24 0 -261 0 -260 -181 0 -181 0 -33 33 c-45 45 -47 69 -43 512 3 411 2
405 71 442 29 16 73 19 414 23 382 5 383 5 405 28 23 22 23 26 23 262 0 236 0
240 -23 262 l-23 23 -457 1 c-251 1 -490 -2 -530 -7z"/>
<path d="M5090 3710 c-309 -37 -490 -177 -545 -423 -14 -63 -15 -151 -13 -682
3 -600 4 -611 25 -668 56 -147 130 -231 256 -291 160 -77 268 -88 815 -84
l424 3 24 29 25 28 -3 234 c-3 208 -5 235 -21 251 -16 16 -50 18 -395 23 -368
5 -378 6 -413 27 -19 12 -41 34 -47 48 -9 19 -12 143 -12 431 0 447 0 447 63
481 28 16 73 19 405 23 l374 5 24 28 c24 28 24 30 24 257 0 228 0 229 -24 257
l-24 28 -449 1 c-246 1 -477 -2 -513 -6z"/>
<path d="M6865 3713 c-32 -9 -65 -34 -79 -62 -24 -46 -303 -782 -335 -884 -57
-179 -62 -244 -59 -724 l3 -432 23 -23 c22 -23 25 -23 302 -23 277 0 280 0
302 23 22 22 23 28 26 262 l3 240 265 0 264 0 0 -224 c0 -125 4 -236 10 -251
19 -51 54 -56 351 -53 264 3 269 3 291 26 l23 23 3 432 c3 480 -2 545 -59 724
-32 102 -311 838 -335 884 -7 14 -26 35 -41 45 -26 18 -54 19 -483 21 -250 0
-464 -1 -475 -4z m529 -595 c11 -18 156 -466 156 -484 0 -2 -106 -4 -235 -4
-129 0 -235 2 -235 6 0 19 142 461 155 480 14 21 23 24 80 24 56 0 66 -3 79
-22z"/>
<path d="M8679 3709 c-14 -5 -31 -21 -38 -35 -16 -36 -16 -2032 1 -2069 7 -16
24 -29 47 -36 24 -7 302 -9 833 -7 l797 3 23 23 23 23 0 530 0 531 -28 24 -28
24 -265 0 -266 0 -29 -29 -29 -29 0 -266 0 -266 -205 0 -205 0 -2 770 -3 769
-23 23 c-22 23 -26 23 -300 25 -161 1 -288 -2 -303 -8z"/>
<path d="M10759 3709 c-14 -5 -31 -21 -38 -35 -16 -36 -16 -2032 0 -2068 7
-14 25 -30 42 -36 20 -6 274 -10 754 -10 767 0 769 0 787 45 3 9 6 117 6 240
0 222 0 224 -24 252 l-24 28 -441 3 -441 3 0 129 0 130 319 0 c299 0 320 1
342 19 24 19 24 22 27 227 3 223 -2 253 -44 273 -17 7 -126 11 -334 11 l-310
0 0 115 0 114 441 3 441 3 24 28 c24 28 24 30 24 252 0 123 -3 231 -6 240 -18
45 -20 45 -791 44 -436 0 -738 -4 -754 -10z"/>
<path d="M12729 3709 c-14 -5 -31 -21 -38 -35 -16 -36 -16 -2032 0 -2068 7
-14 25 -30 42 -36 40 -13 514 -13 554 0 17 6 35 22 42 36 8 18 11 176 11 537
l0 512 24 -25 c14 -14 131 -153 260 -310 l235 -285 1 -212 c0 -199 1 -214 20
-233 11 -11 30 -22 42 -25 13 -3 142 -5 287 -3 l263 3 24 28 24 28 0 1019 0
1019 -24 28 -24 28 -263 3 c-145 2 -274 0 -287 -3 -12 -3 -31 -14 -42 -25 -19
-19 -20 -35 -20 -365 0 -190 -3 -345 -7 -344 -5 0 -144 157 -311 349 -210 242
-314 353 -340 366 -32 16 -65 19 -242 21 -117 1 -216 -2 -231 -8z"/>
<path d="M14989 3709 c-14 -5 -31 -21 -38 -35 -16 -36 -16 -2032 0 -2068 7
-14 25 -30 42 -36 38 -13 1109 -14 1225 0 323 37 504 175 557 425 12 57 15
176 15 645 0 469 -3 588 -15 645 -53 250 -234 388 -557 425 -109 13 -1195 11
-1229 -1z m1078 -585 c15 -11 33 -36 40 -55 15 -44 18 -796 3 -851 -6 -20 -24
-48 -41 -62 l-31 -26 -209 0 -209 0 0 511 0 510 209 -3 c194 -3 212 -5 238
-24z"/>
<path d="M17595 3713 c-32 -9 -65 -34 -79 -62 -24 -46 -303 -782 -335 -884
-57 -179 -62 -244 -59 -724 l3 -432 23 -23 c22 -23 25 -23 302 -23 277 0 280
0 302 23 22 22 23 28 26 262 l3 240 265 0 264 0 0 -224 c0 -125 4 -236 10
-251 19 -51 54 -56 351 -53 264 3 269 3 291 26 l23 23 3 432 c3 480 -2 545
-59 724 -32 102 -311 838 -335 884 -7 14 -26 35 -41 45 -26 18 -54 19 -483 21
-250 0 -464 -1 -475 -4z m529 -595 c11 -18 156 -466 156 -484 0 -2 -106 -4
-235 -4 -129 0 -235 2 -235 6 0 19 142 461 155 480 14 21 23 24 80 24 56 0 66
-3 79 -22z"/>
<path d="M19409 3709 c-14 -5 -31 -21 -38 -35 -16 -36 -16 -2032 0 -2068 7
-14 25 -30 42 -36 18 -6 134 -10 289 -10 213 0 264 3 288 15 17 9 31 17 32 18
1 1 5 151 8 332 l5 330 237 0 238 0 27 -28 28 -27 5 -295 c5 -290 5 -295 28
-317 22 -23 24 -23 312 -23 288 0 290 0 312 23 23 23 23 23 26 385 3 385 -2
455 -42 542 -52 114 -143 182 -295 222 -8 2 2 15 26 32 89 64 113 147 113 381
0 180 -10 242 -56 331 -67 134 -179 201 -377 228 -100 14 -1171 13 -1208 0z
m915 -539 c49 -18 66 -63 66 -178 0 -180 -20 -197 -225 -197 l-130 0 -3 193
-2 192 134 0 c74 0 146 -4 160 -10z"/>
<path d="M3260 2937 c-47 -24 -50 -43 -48 -309 3 -243 3 -248 26 -270 l23 -23
459 0 459 0 23 23 c23 22 23 25 23 282 0 257 0 260 -23 282 l-23 23 -447 3
c-346 1 -453 -1 -472 -11z"/>
</g>
</svg>
