<?xml version="1.0" standalone="no"?>
<!DOCTYPE svg PUBLIC "-//W3C//DTD SVG 20010904//EN"
 "http://www.w3.org/TR/2001/REC-SVG-20010904/DTD/svg10.dtd">
<svg version="1.0" xmlns="http://www.w3.org/2000/svg"
 width="16.000000pt" height="16.000000pt" viewBox="0 0 16.000000 16.000000"
 preserveAspectRatio="xMidYMid meet">

<g transform="translate(0.000000,16.000000) scale(0.100000,-0.100000)"
fill="#000000" stroke="none">
<path d="M7 136 c3 -12 6 -30 5 -41 -1 -16 1 -17 8 -5 13 21 19 10 13 -22 -3
-17 -10 -25 -17 -21 -6 4 -5 0 2 -9 11 -14 16 -14 42 -1 16 8 34 12 40 8 5 -3
10 3 10 14 0 11 -7 24 -17 29 -15 9 -14 11 5 21 11 6 28 8 36 5 9 -3 16 -2 16
4 0 6 3 17 6 25 5 13 -8 15 -75 15 -78 -1 -81 -2 -74 -22z"/>
<path d="M60 20 c-12 -8 -10 -10 8 -10 13 0 20 4 17 10 -7 12 -6 12 -25 0z"/>
</g>
</svg>
